<?xml version="1.0" standalone="no"?>
<!DOCTYPE svg PUBLIC "-//W3C//DTD SVG 20010904//EN"
 "http://www.w3.org/TR/2001/REC-SVG-20010904/DTD/svg10.dtd">
<svg version="1.0" xmlns="http://www.w3.org/2000/svg"
 width="487.000000pt" height="487.000000pt" viewBox="0 0 487.000000 487.000000"
 preserveAspectRatio="xMidYMid meet">
<metadata>
Created by potrace 1.14, written by Peter Selinger 2001-2017
</metadata>
<g transform="translate(0.000000,487.000000) scale(0.100000,-0.100000)"
fill="#000000" stroke="none">
<path d="M2905 3418 c-74 -17 -135 -21 -335 -23 -135 -1 -248 -3 -251 -4 -3 0
-12 -36 -19 -78 -8 -43 -14 -82 -16 -88 -1 -5 -14 -77 -28 -160 -64 -367 -64
-365 -76 -365 -5 0 -8 21 -5 47 4 51 -6 80 -79 236 -25 55 -46 100 -46 102 0
3 -116 251 -133 285 l-13 25 -227 0 c-220 0 -228 0 -232 -20 -5 -20 -69 -381
-80 -445 -5 -31 -13 -77 -20 -120 -2 -8 -10 -53 -18 -100 -9 -47 -18 -101 -21
-120 -3 -19 -8 -45 -10 -58 -3 -13 -15 -78 -26 -145 -11 -67 -23 -133 -26
-147 -3 -14 -7 -36 -9 -50 -2 -14 -18 -103 -34 -197 -17 -95 -31 -179 -31
-187 0 -22 482 -18 486 4 1 8 9 53 17 100 9 47 18 105 22 130 3 25 10 61 15
80 5 19 11 53 15 75 3 22 10 65 15 95 5 30 12 71 15 90 13 82 18 100 26 100 4
0 8 -21 8 -47 -1 -46 5 -61 86 -238 8 -16 52 -113 99 -215 l85 -185 231 -2
c199 -1 230 0 230 14 0 8 3 13 8 11 4 -2 30 -15 57 -30 48 -25 111 -46 165
-54 14 -2 40 -7 58 -10 44 -7 224 -6 282 2 133 17 266 65 361 127 90 60 85 50
104 197 9 74 18 146 20 160 2 14 6 45 10 70 3 25 8 61 11 80 3 19 7 51 9 70
13 106 18 139 25 183 4 28 3 50 -3 54 -11 6 -585 8 -592 2 -4 -5 -10 -38 -20
-109 -3 -25 -8 -56 -10 -70 -2 -14 -7 -52 -11 -85 -3 -33 -7 -64 -8 -70 -1 -9
34 -12 152 -14 l43 -1 -5 -57 c-6 -66 -15 -133 -21 -149 -5 -17 -121 -46 -185
-46 -113 -1 -176 37 -211 131 -28 75 -30 222 -4 391 2 14 6 43 9 65 22 163 68
292 126 358 51 59 83 71 180 72 72 0 90 -3 116 -22 52 -37 68 -84 67 -195 l-1
-98 199 0 c110 0 199 3 200 8 0 4 3 16 6 27 12 49 12 243 -1 296 -30 129 -100
216 -221 274 -133 64 -353 82 -530 43z"/>
<path d="M3783 3383 c0 -16 -11 -98 -22 -183 -12 -85 -24 -171 -26 -190 -11
-87 -16 -130 -26 -200 -5 -41 -12 -88 -14 -105 -2 -16 -9 -68 -15 -115 -5 -47
-12 -98 -14 -115 -2 -16 -12 -86 -20 -155 -20 -152 -26 -197 -31 -230 -2 -14
-6 -47 -10 -75 -3 -27 -8 -61 -10 -75 -2 -14 -6 -47 -10 -75 -4 -27 -8 -65
-11 -82 -4 -31 -2 -33 29 -34 146 -4 957 -3 958 1 0 3 2 12 3 20 2 8 6 42 10
75 4 33 9 74 12 90 16 117 20 156 14 160 -3 2 -130 4 -281 4 -151 0 -280 0
-287 1 -8 0 -11 10 -8 28 3 15 7 47 10 72 3 25 24 182 46 350 22 168 47 359
56 425 8 66 17 131 19 145 3 14 7 50 11 80 3 30 7 66 10 80 2 14 6 49 10 78
l6 52 -204 0 -203 0 -2 -27z"/>
<path d="M350 3390 c0 -5 5 -10 10 -10 6 0 10 5 10 10 0 6 -4 10 -10 10 -5 0
-10 -4 -10 -10z"/>
<path d="M380 3388 c0 -5 12 -8 28 -9 15 0 35 -2 45 -4 16 -3 50 -7 197 -20
25 -3 61 -7 80 -10 36 -5 71 -9 195 -21 39 -3 77 -8 85 -9 8 -2 49 -6 90 -9
41 -4 91 -9 110 -11 124 -15 140 -15 141 -3 1 13 4 33 13 78 l5 25 -495 0
c-272 0 -494 -3 -494 -7z"/>
<path d="M271 3146 c2 -2 38 -7 79 -10 41 -4 89 -9 105 -11 17 -2 75 -9 130
-15 55 -6 118 -12 140 -15 22 -2 67 -7 100 -10 33 -3 74 -8 90 -10 17 -2 57
-7 90 -10 33 -4 74 -8 90 -10 17 -2 66 -6 110 -10 44 -4 84 -8 89 -9 11 -1 23
42 25 86 l1 27 -526 0 c-290 0 -525 -1 -523 -3z"/>
<path d="M300 2899 c-51 -4 -56 -6 -25 -8 22 -2 51 -4 65 -6 14 -2 54 -6 90
-9 36 -3 81 -8 100 -11 45 -6 121 -14 190 -20 30 -3 75 -7 100 -10 85 -11 105
-13 180 -20 41 -4 93 -10 115 -13 22 -4 65 -7 95 -7 l55 0 8 48 c5 26 7 50 4
53 -8 8 -896 10 -977 3z"/>
<path d="M198 2653 c7 -3 16 -2 19 1 4 3 -2 6 -13 5 -11 0 -14 -3 -6 -6z"/>
<path d="M230 2648 c0 -4 24 -8 53 -9 28 0 61 -2 72 -4 21 -4 82 -12 155 -19
25 -3 70 -8 100 -11 30 -3 73 -8 95 -10 22 -2 63 -6 90 -9 28 -3 75 -8 105
-11 30 -3 71 -7 90 -10 19 -3 55 -7 80 -9 25 -2 69 -7 98 -11 29 -3 52 -3 53
2 0 4 3 22 6 38 3 17 6 39 7 50 1 20 -5 20 -501 21 -277 0 -503 -3 -503 -8z"/>
<path d="M195 2399 c33 -4 87 -10 120 -13 33 -3 83 -8 110 -11 28 -3 66 -7 85
-10 37 -5 82 -10 195 -20 39 -4 81 -8 95 -11 14 -2 56 -6 95 -9 38 -3 79 -8
90 -10 11 -2 54 -7 95 -11 41 -3 78 -8 83 -11 9 -5 15 9 26 70 l8 47 -531 -1
c-313 -1 -506 -5 -471 -10z"/>
<path d="M113 2158 c7 -3 51 -9 97 -12 47 -4 95 -8 107 -10 12 -3 53 -7 90
-11 37 -3 84 -8 103 -11 19 -2 62 -6 95 -9 33 -3 76 -8 95 -10 66 -8 125 -15
170 -19 25 -3 77 -8 115 -12 39 -4 88 -8 110 -8 l40 -1 7 50 c4 27 5 51 2 54
-2 3 -238 5 -523 5 -286 1 -514 -2 -508 -6z"/>
<path d="M76 1911 c6 -6 11 -7 104 -15 41 -4 89 -9 105 -11 17 -2 55 -7 85
-10 30 -3 98 -10 150 -15 52 -6 120 -13 150 -15 53 -6 81 -9 165 -19 22 -3 67
-8 100 -11 33 -3 81 -8 107 -10 l46 -5 7 42 c3 24 8 50 11 58 3 13 -58 15
-515 15 -286 0 -517 -2 -515 -4z"/>
<path d="M1202 1634 c-34 -23 -25 -56 18 -70 43 -14 51 -40 16 -55 -22 -10
-29 -9 -45 5 -11 10 -22 13 -25 8 -7 -12 16 -33 41 -36 29 -5 63 15 69 40 8
30 0 41 -35 49 -29 6 -46 29 -35 46 8 13 48 11 62 -3 17 -17 28 -2 12 17 -16
19 -50 19 -78 -1z"/>
<path d="M2060 1639 c0 -5 12 -9 26 -9 19 0 24 -4 20 -17 -12 -43 -17 -123 -8
-123 5 0 13 21 17 48 12 84 15 92 41 92 13 0 24 4 24 9 0 6 -27 10 -60 10 -33
0 -60 -5 -60 -10z"/>
<path d="M2436 1638 c-5 -17 -26 -129 -26 -140 0 -4 4 -8 9 -8 5 0 12 19 16
42 14 82 70 84 59 2 -4 -29 -2 -44 5 -44 6 0 11 8 11 18 0 9 3 34 6 54 6 34 4
38 -20 44 -14 3 -32 1 -39 -5 -11 -8 -13 -4 -9 19 4 29 -5 42 -12 18z"/>
<path d="M2816 1638 c-3 -7 -7 -31 -10 -53 -3 -22 -8 -52 -11 -67 -6 -34 10
-38 19 -5 10 42 19 137 12 137 -4 0 -8 -6 -10 -12z"/>
<path d="M3221 1586 c-13 -77 -14 -96 -2 -96 6 0 11 15 13 33 3 29 6 32 41 35
20 2 37 7 37 12 0 5 -14 8 -30 6 -35 -4 -44 5 -35 34 5 15 15 20 40 20 19 0
36 4 39 8 3 5 -17 9 -44 9 l-48 1 -11 -62z"/>
<path d="M3933 1643 c3 -2 1 -22 -4 -44 -5 -21 -12 -55 -15 -74 l-5 -35 40 0
c52 0 91 32 98 82 6 50 -21 77 -77 76 -22 0 -39 -2 -37 -5z m87 -28 c14 -17 6
-78 -13 -93 -6 -6 -25 -12 -42 -14 -33 -3 -34 2 -20 80 7 37 11 42 35 42 15 0
33 -7 40 -15z"/>
<path d="M4216 1642 c-9 -15 -28 -143 -22 -149 9 -10 13 -1 19 37 3 19 8 54
12 78 7 39 3 53 -9 34z"/>
<path d="M4260 1640 c0 -5 4 -10 9 -10 6 0 13 5 16 10 3 6 -1 10 -9 10 -9 0
-16 -4 -16 -10z"/>
<path d="M1730 1623 c-9 -11 -15 -39 -15 -73 0 -51 2 -55 25 -58 23 -3 24 -3
7 10 -15 11 -17 21 -12 51 4 22 13 37 21 37 8 0 14 5 14 11 0 5 -4 8 -9 4 -5
-3 -11 4 -13 15 -3 20 -4 20 -18 3z"/>
<path d="M3588 1621 c-10 -11 -13 -23 -8 -26 5 -3 6 -17 4 -31 -11 -61 -8 -74
19 -74 20 1 21 2 5 14 -10 7 -16 15 -14 17 3 2 6 20 8 39 3 19 9 35 15 35 6 0
15 3 19 8 4 4 0 7 -9 7 -8 0 -17 7 -19 15 -2 13 -6 12 -20 -4z"/>
<path d="M1315 1578 c-3 -15 -8 -41 -11 -58 -3 -18 -1 -30 5 -30 6 0 11 3 12
8 7 75 14 92 40 92 19 0 20 -4 14 -50 -9 -64 9 -66 21 -2 7 39 13 48 33 50 23
4 24 2 17 -47 -4 -33 -3 -51 4 -51 5 0 10 6 11 13 0 6 2 31 5 54 6 46 -9 63
-43 47 -10 -4 -22 -6 -28 -4 -5 2 -24 4 -42 5 -28 1 -33 -2 -38 -27z"/>
<path d="M1514 1595 c-18 -14 -16 -15 19 -9 29 5 37 3 37 -9 0 -9 -14 -17 -36
-21 -19 -4 -38 -14 -41 -23 -9 -22 11 -49 33 -45 11 2 26 3 35 3 17 0 29 36
29 84 0 35 -42 46 -76 20z m56 -54 c0 -15 -30 -41 -46 -41 -8 0 -14 9 -14 19
0 14 8 21 28 24 15 2 28 5 30 6 1 0 2 -3 2 -8z"/>
<path d="M1625 1578 c-3 -16 -8 -41 -11 -58 -3 -18 -1 -30 5 -30 6 0 11 8 11
19 0 38 22 81 41 81 10 0 19 4 19 10 0 5 -13 8 -30 7 -24 -2 -31 -8 -35 -29z"/>
<path d="M1805 1597 c-12 -10 -18 -28 -19 -57 -1 -39 2 -44 26 -51 28 -7 70
13 56 27 -4 4 -14 1 -23 -6 -18 -15 -45 -6 -45 14 0 10 13 16 43 18 36 3 42 6
43 26 2 37 -46 54 -81 29z m63 -24 c2 -9 -8 -13 -33 -13 -33 0 -36 2 -25 15
15 18 51 16 58 -2z"/>
<path d="M1915 1573 c-3 -21 -9 -48 -12 -60 -3 -13 0 -23 5 -23 6 0 14 20 18
45 5 36 11 46 30 51 13 3 24 10 24 15 0 13 -24 11 -39 -3 -11 -10 -13 -10 -7
0 4 6 3 12 -2 12 -6 0 -13 -17 -17 -37z"/>
<path d="M2190 1590 c-11 -11 -21 -26 -21 -32 -5 -55 20 -81 63 -66 15 6 28
14 28 19 0 12 -7 11 -31 -2 -15 -7 -24 -7 -35 2 -25 20 -15 29 31 29 44 0 50
5 45 40 -5 34 -50 40 -80 10z m64 -15 c4 -12 -3 -15 -29 -15 -34 0 -47 13 -22
23 24 10 45 7 51 -8z"/>
<path d="M2322 1593 c-12 -10 -24 -30 -27 -45 -13 -52 52 -83 86 -42 14 17 5
18 -23 3 -29 -15 -53 10 -44 46 8 32 32 42 58 26 27 -16 38 -3 14 15 -26 18
-39 18 -64 -3z"/>
<path d="M2557 1600 c-5 -15 -18 -85 -17 -95 0 -3 3 -5 8 -6 4 0 12 19 17 43
7 29 17 44 29 46 26 5 34 -13 26 -59 -5 -26 -4 -39 3 -36 10 3 17 32 21 81 2
27 -29 44 -53 29 -15 -10 -21 -10 -24 0 -3 8 -6 7 -10 -3z"/>
<path d="M2698 1598 c-40 -32 -42 -93 -4 -107 51 -19 102 49 71 96 -17 25 -43
30 -67 11z m57 -27 c8 -27 -4 -51 -33 -62 -30 -11 -45 4 -36 36 14 46 57 62
69 26z"/>
<path d="M2871 1593 c-24 -21 -33 -60 -19 -86 8 -15 17 -18 45 -12 33 6 34 5
23 -16 -10 -17 -18 -20 -46 -16 -36 6 -47 -7 -15 -18 28 -9 70 4 75 23 3 10
10 44 15 76 11 59 7 82 -8 57 -6 -9 -11 -10 -15 -2 -10 16 -31 14 -55 -6z m55
-18 c4 -8 3 -26 0 -40 -5 -18 -13 -25 -32 -25 -31 0 -41 24 -24 56 15 27 47
32 56 9z"/>
<path d="M2994 1544 c9 -64 9 -67 -15 -85 -18 -14 -20 -19 -8 -19 9 0 23 8 31
18 27 31 90 152 79 152 -6 0 -22 -21 -35 -47 l-24 -48 -7 30 c-12 55 -16 65
-24 65 -4 0 -3 -30 3 -66z"/>
<path d="M3363 1603 c-26 -9 -12 -22 16 -17 16 4 32 1 35 -5 8 -12 -13 -23
-46 -25 -29 -1 -46 -31 -32 -53 8 -13 21 -17 45 -15 19 2 36 6 39 8 2 3 4 28
5 57 0 49 -2 52 -25 53 -14 0 -31 -1 -37 -3z m37 -82 c-14 -27 -50 -28 -50 -2
0 14 8 21 28 23 35 4 36 4 22 -21z"/>
<path d="M3475 1594 c-21 -22 -15 -36 24 -55 30 -14 31 -17 16 -29 -13 -11
-21 -11 -36 -2 -23 15 -29 15 -29 2 0 -17 43 -28 67 -17 12 5 24 18 26 28 4
15 -3 23 -31 35 -35 15 -36 16 -18 29 15 11 23 12 33 3 7 -6 17 -8 20 -4 9 9
-16 26 -39 26 -9 0 -24 -7 -33 -16z"/>
<path d="M3672 1593 c-32 -27 -38 -67 -13 -92 17 -17 25 -19 51 -10 16 6 30
15 30 20 0 12 -7 11 -30 -1 -22 -12 -50 -3 -50 16 0 10 13 14 45 14 40 0 45 2
45 23 0 46 -41 61 -78 30z m58 -18 c0 -10 -10 -15 -30 -15 -29 0 -38 9 -23 23
13 13 53 7 53 -8z"/>
<path d="M3785 1600 c-1 -3 -6 -29 -10 -57 -5 -36 -3 -53 4 -53 6 0 12 14 12
30 2 52 3 54 27 66 36 18 37 24 2 21 -17 -1 -33 -4 -35 -7z"/>
<path d="M4103 1600 c-19 -8 -33 -31 -39 -68 -1 -7 7 -21 18 -32 16 -15 25
-16 49 -8 16 5 29 14 29 19 0 12 -14 11 -27 -2 -8 -8 -17 -8 -32 0 -34 19 -24
31 24 31 40 0 45 2 45 23 0 41 -24 54 -67 37z m51 -25 c4 -12 -3 -15 -29 -15
-26 0 -33 3 -29 15 4 8 16 15 29 15 13 0 25 -7 29 -15z"/>
<path d="M4253 1598 c0 -7 -4 -34 -8 -60 -4 -30 -4 -48 3 -48 9 0 22 54 22 98
0 22 -16 32 -17 10z"/>
<path d="M4300 1600 c0 -32 24 -110 34 -110 10 0 66 98 66 116 0 15 -23 -13
-44 -54 l-24 -46 -7 52 c-4 29 -11 52 -16 52 -5 0 -9 -4 -9 -10z"/>
<path d="M4437 1598 c-38 -30 -39 -95 -1 -108 20 -8 64 7 64 22 0 11 -7 10
-29 -4 -15 -9 -23 -9 -35 1 -26 22 -18 31 28 31 50 0 63 16 40 49 -17 24 -42
27 -67 9z m57 -23 c4 -12 -3 -15 -29 -15 -34 0 -47 13 -22 23 24 10 45 7 51
-8z"/>
<path d="M4546 1590 c-13 -47 -17 -100 -7 -100 9 0 16 42 9 53 -7 10 27 47 42
47 11 0 20 4 20 10 0 15 -60 6 -64 -10z"/>
<path d="M4628 1605 c-3 -3 0 -31 7 -62 12 -51 11 -57 -7 -75 -21 -21 -20 -32
3 -23 18 7 104 165 90 165 -6 0 -22 -21 -35 -47 l-24 -48 -7 30 c-10 45 -20
67 -27 60z"/>
<path d="M4793 1513 c-18 -7 -16 -23 2 -23 8 0 15 7 15 15 0 8 -1 15 -2 14 -2
0 -9 -3 -15 -6z"/>
<path d="M3086 1484 c-9 -36 1 -43 14 -10 12 33 12 36 1 36 -5 0 -12 -12 -15
-26z"/>
<path d="M4725 1500 c-3 -5 1 -10 9 -10 9 0 16 5 16 10 0 6 -4 10 -9 10 -6 0
-13 -4 -16 -10z"/>
<path d="M4840 1500 c0 -5 4 -10 9 -10 6 0 13 5 16 10 3 6 -1 10 -9 10 -9 0
-16 -4 -16 -10z"/>
</g>
</svg>
